<svg xmlns="http://www.w3.org/2000/svg" viewBox="0 0 370.3 32.5"><title>Risorsa 1</title><g id="Livello_2" data-name="Livello 2"><g id="Livello_1-2" data-name="Livello 1"><path d="M370.3.2V32.5c-5.4-4.7-10.7-9.2-16.2-14V32.3h-8.3V.2c5.4,4.7,10.7,9.3,16.2,14V0h8.3Z"/><polygon points="289.6 8.4 289.6 12.1 298.6 12.1 298.6 20.5 289.6 20.5 289.6 24.1 302.4 24.1 302.4 32.4 281.2 32.4 281.2 0.2 302.4 0.2 302.4 8.4 289.6 8.4"/><polygon points="236.9 0.2 236.9 32.4 228.7 32.4 228.7 21.1 218.1 21.1 218.1 32.4 209.8 32.4 209.8 0.3 218 0.3 218 12.5 228.6 12.5 228.6 0.2 236.9 0.2"/><path d="M157.7.5c-5.1-.6-10.3-.1-15.6-.1V32.3h8.3V23.8c2.2-.1,4.2-.1,6.2-.3a11.82,11.82,0,0,0,10.5-11.4C167.3,6.4,163.4,1.2,157.7.5Zm-1.9,14.8a5,5,0,0,1-1.2.2h-4.1V8.1c1.9.1,3.6.1,5.3.3a3.44,3.44,0,0,1,3,3.4A3.7,3.7,0,0,1,155.8,15.3Z"/><path d="M100.7,0c-1.4,2.3-2.6,4.2-3.8,6.2C94.4,10,92,13.9,89.6,17.8a4.62,4.62,0,0,0-.7,2.6c-.1,3.4,0,6.9,0,10.3v1.7H80.6c0-3.8-.1-7.6,0-11.3a6.59,6.59,0,0,0-1.1-3.9C76.2,12.1,73,6.9,69.8,1.8c-.3-.5-.6-.9-1.1-1.7,3.4,0,6.4,0,9.5.1.3,0,.7.6,1,1C81.1,4,82.8,6.9,84.8,10c1.8-2.9,3.6-5.6,5.2-8.3A2.7,2.7,0,0,1,92.8.1C95.3.2,97.8,0,100.7,0Z"/><polygon points="27.2 0.2 27.2 32.4 19.1 32.4 19.1 21 8.4 21 8.4 32.4 0 32.4 0 0.3 8.4 0.3 8.4 12.5 19 12.5 19 0.2 27.2 0.2"/></g></g></svg>